<?xml version="1.0" encoding="UTF-8" standalone="no"?>
<!DOCTYPE svg PUBLIC "-//W3C//DTD SVG 1.1//EN" "http://www.w3.org/Graphics/SVG/1.1/DTD/svg11.dtd">
<svg id = 'pressure' display = 'none' height="50%" viewBox="0 0 24 24" overflow="visible" version="1.1" xmlns="http://www.w3.org/2000/svg">
  <path d="M6.649002,23.27448 C5.862099,23.19774 4.89831,22.73672 4.415255,22.1463 C2.435819,19.72715 1.509265,15.16611 4.122021,11.60021 C4.718633,10.78597 5.110523,10.53962 5.338298,9.775794 C5.779779,8.295336 5.110136,7.010423 4.493484,5.306861 C3.659643,3.003371 5.496331,0.6638351 7.968469,0.5821511 L15.87247,0.5864909 C18.33037,0.6787897 19.92516,2.976696 19.32045,5.382546 L18.50328,8.101782 C18.11495,9.052745 18.30649,9.688774 18.99742,10.47477 C22.02067,13.91393 22.20178,18.51834 19.41908,22.05894 C18.91601,22.69904 17.90177,23.18212 17.07349,23.27097 C15.35401,23.45537 13.60094,23.32661 11.86166,23.32655 C10.12241,23.32647 8.371859,23.44243 6.649002,23.27448 z M17.47812,4.94137 C17.82385,3.53317 17.08623,2.514068 15.61866,2.47617 L8.191684,2.474899 C6.654724,2.513709 5.945967,3.555644 6.337773,5.066425 L7.331527,8.325521 C10.32478,6.860627 13.32418,6.814188 16.44221,8.338072 z" stroke="Black" stroke-width="0" fill="#092AB3" fill-opacity="1" />
</svg>