<?xml version="1.0" encoding="UTF-8" standalone="no"?>
<!DOCTYPE svg PUBLIC "-//W3C//DTD SVG 1.1//EN" "http://www.w3.org/Graphics/SVG/1.1/DTD/svg11.dtd">
<svg width="24pt" height="24pt" viewBox="0 0 24 24" overflow="visible" version="1.1" xmlns="http://www.w3.org/2000/svg">
  <path d="M0.5454373,17.25799 L0.5262574,18.00076 L23.36715,18.02504 L23.36715,17.24294" stroke="#092AB3" stroke-width="0.04" fill-opacity="0" />
  <path d="M12.47154,17.28704 C12.49587,17.04699 12.22375,16.77486 11.98369,16.79919 C11.74364,16.77486 11.47151,17.04699 11.49585,17.28704 C11.47151,17.52709 11.74364,17.79922 11.98369,17.77489 C12.22375,17.79922 12.49587,17.52709 12.47154,17.28704 z" stroke="#092AB3" stroke-width="0.04" fill-opacity="0" />
  <path d="M0.5438156,17.26551 C1.318466,2.364223 22.44481,1.754906 23.38141,17.26551" stroke="#092AB3" stroke-width="0.04" fill-opacity="0" />
  <path d="M4.064427,9.086668 L4.524053,9.562106" stroke="#092AB3" stroke-width="0.04" fill-opacity="0" />
  <path d="M4.809387,8.427596 L5.22553,8.941485" stroke="#092AB3" stroke-width="0.04" fill-opacity="0" />
  <path d="M16.62058,6.872632 L16.35141,7.476721" stroke="#092AB3" stroke-width="0.04" fill-opacity="0" />
  <path d="M3.926073,9.229336 L4.588738,9.892001" stroke="#092AB3" stroke-width="0.04" fill-opacity="0" />
  <path d="M21.75552,11.4157 L21.1888,11.75602" stroke="#092AB3" stroke-width="0.04" fill-opacity="0" />
  <path d="M16.43802,6.793212 L16.17964,7.401974" stroke="#092AB3" stroke-width="0.04" fill-opacity="0" />
  <path d="M3.646129,9.512155 L4.129831,9.963155" stroke="#092AB3" stroke-width="0.04" fill-opacity="0" />
  <path d="M23.09163,14.72256 L22.44729,14.87134" stroke="#092AB3" stroke-width="0.04" fill-opacity="0" />
  <path d="M16.98102,7.040814 L16.69137,7.635201" stroke="#092AB3" stroke-width="0.04" fill-opacity="0" />
  <path d="M7.713042,6.717028 L7.961002,7.330101" stroke="#092AB3" stroke-width="0.04" fill-opacity="0" />
  <path d="M22.22988,12.28967 L21.63549,12.57932" stroke="#092AB3" stroke-width="0.04" fill-opacity="0" />
  <path d="M22.94213,14.1447 L22.30642,14.3269" stroke="#092AB3" stroke-width="0.04" fill-opacity="0" />
  <path d="M2.532822,10.91223 L3.080851,11.28202" stroke="#092AB3" stroke-width="0.04" fill-opacity="0" />
  <path d="M14.93301,6.280042 L14.69044,7.185278" stroke="#092AB3" stroke-width="0.04" fill-opacity="0" />
  <path d="M21.31817,10.75088 L20.55021,11.28849" stroke="#092AB3" stroke-width="0.04" fill-opacity="0" />
  <path d="M17.15926,7.129577 L16.85883,7.718573" stroke="#092AB3" stroke-width="0.04" fill-opacity="0" />
  <path d="M4.504647,8.683463 L4.938398,9.182259" stroke="#092AB3" stroke-width="0.04" fill-opacity="0" />
  <path d="M4.208891,8.949751 L4.659892,9.433094" stroke="#092AB3" stroke-width="0.04" fill-opacity="0" />
  <path d="M3.783046,9.36805 L4.258842,9.827315" stroke="#092AB3" stroke-width="0.04" fill-opacity="0" />
  <path d="M4.355512,8.81535 L4.798247,9.306599" stroke="#092AB3" stroke-width="0.04" fill-opacity="0" />
  <path d="M3.511727,9.658774 L4.003335,10.10151" stroke="#092AB3" stroke-width="0.04" fill-opacity="0" />
  <path d="M4.964992,8.303616 L5.372149,8.824693" stroke="#092AB3" stroke-width="0.04" fill-opacity="0" />
  <path d="M17.33571,7.221573 L17.02522,7.805179" stroke="#092AB3" stroke-width="0.04" fill-opacity="0" />
  <path d="M5.123111,8.18251 L5.520926,8.710774" stroke="#092AB3" stroke-width="0.04" fill-opacity="0" />
  <path d="M5.283028,8.06428 L5.671499,8.599372" stroke="#092AB3" stroke-width="0.04" fill-opacity="0" />
  <path d="M17.51072,7.316445 L17.18981,7.89466" stroke="#092AB3" stroke-width="0.04" fill-opacity="0" />
  <path d="M21.95424,11.76033 L21.37603,12.08088" stroke="#092AB3" stroke-width="0.04" fill-opacity="0" />
  <path d="M5.60897,7.836084 L5.978755,8.384113" stroke="#092AB3" stroke-width="0.04" fill-opacity="0" />
  <path d="M5.774637,7.72612 L6.135078,8.280617" stroke="#092AB3" stroke-width="0.04" fill-opacity="0" />
  <path d="M16.79954,6.959598 L16.40352,7.808773" stroke="#092AB3" stroke-width="0.04" fill-opacity="0" />
  <path d="M22.04948,11.93498 L21.46551,12.24547" stroke="#092AB3" stroke-width="0.04" fill-opacity="0" />
  <path d="M5.94246,7.619389 L6.293198,8.179996" stroke="#092AB3" stroke-width="0.04" fill-opacity="0" />
  <path d="M6.112438,7.515173 L6.452755,8.082249" stroke="#092AB3" stroke-width="0.04" fill-opacity="0" />
  <path d="M17.85499,7.515173 L17.51467,8.082249" stroke="#092AB3" stroke-width="0.04" fill-opacity="0" />
  <path d="M23.13475,14.91698 L22.4879,15.05425" stroke="#092AB3" stroke-width="0.04" fill-opacity="0" />
  <path d="M23.35612,16.49171 L22.69633,16.53806" stroke="#092AB3" stroke-width="0.04" fill-opacity="0" />
  <path d="M5.447616,7.952518 L5.985223,8.720477" stroke="#092AB3" stroke-width="0.04" fill-opacity="0" />
  <path d="M6.456708,7.316445 L6.777619,7.89466" stroke="#092AB3" stroke-width="0.04" fill-opacity="0" />
  <path d="M18.02497,7.619389 L17.67423,8.179996" stroke="#092AB3" stroke-width="0.04" fill-opacity="0" />
  <path d="M18.35846,7.836084 L17.98867,8.384113" stroke="#092AB3" stroke-width="0.04" fill-opacity="0" />
  <path d="M7.34685,6.872632 L7.616014,7.476721" stroke="#092AB3" stroke-width="0.04" fill-opacity="0" />
  <path d="M6.631718,7.221573 L6.942207,7.805179" stroke="#092AB3" stroke-width="0.04" fill-opacity="0" />
  <path d="M6.986409,7.040814 L7.276056,7.635201" stroke="#092AB3" stroke-width="0.04" fill-opacity="0" />
  <path d="M22.14111,12.11143 L21.55212,12.41186" stroke="#092AB3" stroke-width="0.04" fill-opacity="0" />
  <path d="M7.529407,6.793212 L7.787789,7.401974" stroke="#092AB3" stroke-width="0.04" fill-opacity="0" />
  <path d="M23.17428,15.11175 L22.52527,15.23789" stroke="#092AB3" stroke-width="0.04" fill-opacity="0" />
  <path d="M6.808166,7.129577 L7.108593,7.718573" stroke="#092AB3" stroke-width="0.04" fill-opacity="0" />
  <path d="M18.6844,8.06428 L18.29593,8.599372" stroke="#092AB3" stroke-width="0.04" fill-opacity="0" />
  <path d="M7.898473,6.644077 L8.135293,7.261463" stroke="#092AB3" stroke-width="0.04" fill-opacity="0" />
  <path d="M7.167888,6.959598 L7.563906,7.808773" stroke="#092AB3" stroke-width="0.04" fill-opacity="0" />
  <path d="M18.84431,8.18251 L18.4465,8.710774" stroke="#092AB3" stroke-width="0.04" fill-opacity="0" />
  <path d="M8.272211,6.508237 L8.48747,7.13317" stroke="#092AB3" stroke-width="0.04" fill-opacity="0" />
  <path d="M22.39806,12.65011 L21.79397,12.91928" stroke="#092AB3" stroke-width="0.04" fill-opacity="0" />
  <path d="M8.460876,6.44499 L8.665354,7.073875" stroke="#092AB3" stroke-width="0.04" fill-opacity="0" />
  <path d="M19.00244,8.303616 L18.59528,8.824693" stroke="#092AB3" stroke-width="0.04" fill-opacity="0" />
  <path d="M8.65062,6.384976 L8.843958,7.017455" stroke="#092AB3" stroke-width="0.04" fill-opacity="0" />
  <path d="M8.841442,6.328556 L9.023639,6.96427" stroke="#092AB3" stroke-width="0.04" fill-opacity="0" />
  <path d="M19.15804,8.427596 L18.7419,8.941485" stroke="#092AB3" stroke-width="0.04" fill-opacity="0" />
  <path d="M23.36798,16.69043 L22.70783,16.72493" stroke="#092AB3" stroke-width="0.04" fill-opacity="0" />
  <path d="M22.47748,12.83267 L21.86872,13.09105" stroke="#092AB3" stroke-width="0.04" fill-opacity="0" />
  <path d="M23.33564,16.29406 L22.40201,16.37563" stroke="#092AB3" stroke-width="0.04" fill-opacity="0" />
  <path d="M9.419298,6.179061 L9.568074,6.823399" stroke="#092AB3" stroke-width="0.04" fill-opacity="0" />
  <path d="M18.51981,7.952518 L17.9822,8.720477" stroke="#092AB3" stroke-width="0.04" fill-opacity="0" />
  <path d="M9.613354,6.136297 L9.75099,6.782791" stroke="#092AB3" stroke-width="0.04" fill-opacity="0" />
  <path d="M9.808488,6.096407 L9.934625,6.745418" stroke="#092AB3" stroke-width="0.04" fill-opacity="0" />
  <path d="M19.46278,8.683463 L19.02903,9.182259" stroke="#092AB3" stroke-width="0.04" fill-opacity="0" />
  <path d="M11.86692,17.28698 L12.10051,17.28698" stroke="#092AB3" stroke-width="0.04" fill-opacity="0" />
  <path d="M9.03442,6.280042 L9.27699,7.185278" stroke="#092AB3" stroke-width="0.04" fill-opacity="0" />
  <path d="M11.98371,17.40377 L11.98371,17.17018" stroke="#092AB3" stroke-width="0.04" fill-opacity="0" />
  <path d="M0.5883076,17.28698 L1.910764,17.28698" stroke="#092AB3" stroke-width="0.04" fill-opacity="0" />
  <path d="M10.20019,6.02741 L10.30369,6.680372" stroke="#092AB3" stroke-width="0.04" fill-opacity="0" />
  <path d="M19.61192,8.81535 L19.16918,9.306599" stroke="#092AB3" stroke-width="0.04" fill-opacity="0" />
  <path d="M22.55366,13.01666 L21.94059,13.26427" stroke="#092AB3" stroke-width="0.04" fill-opacity="0" />
  <path d="M0.7615203,15.30832 L2.063853,15.53796" stroke="#092AB3" stroke-width="0.04" fill-opacity="0" />
  <path d="M1.275769,13.38968 L2.518447,13.84212" stroke="#092AB3" stroke-width="0.04" fill-opacity="0" />
  <path d="M10.39713,5.997942 L10.48912,6.652702" stroke="#092AB3" stroke-width="0.04" fill-opacity="0" />
  <path d="M2.115242,11.58927 L3.260532,12.2505" stroke="#092AB3" stroke-width="0.04" fill-opacity="0" />
  <path d="M3.254423,9.962437 L4.267468,10.81233" stroke="#092AB3" stroke-width="0.04" fill-opacity="0" />
  <path d="M10.59442,5.972067 L10.67491,6.628265" stroke="#092AB3" stroke-width="0.04" fill-opacity="0" />
  <path d="M19.75854,8.949751 L19.30754,9.433094" stroke="#092AB3" stroke-width="0.04" fill-opacity="0" />
  <path d="M4.658814,8.557686 L5.509068,9.57073" stroke="#092AB3" stroke-width="0.04" fill-opacity="0" />
  <path d="M6.28601,7.418505 L6.947238,8.563795" stroke="#092AB3" stroke-width="0.04" fill-opacity="0" />
  <path d="M10.79207,5.949428 L10.86106,6.607063" stroke="#092AB3" stroke-width="0.04" fill-opacity="0" />
  <path d="M8.08642,6.579032 L8.538499,7.82171" stroke="#092AB3" stroke-width="0.04" fill-opacity="0" />
  <path d="M10.00506,6.064784 L10.23469,7.367475" stroke="#092AB3" stroke-width="0.04" fill-opacity="0" />
  <path d="M11.18844,5.914929 L11.23444,6.57436" stroke="#092AB3" stroke-width="0.04" fill-opacity="0" />
  <path d="M19.903,9.086668 L19.44337,9.562106" stroke="#092AB3" stroke-width="0.04" fill-opacity="0" />
  <path d="M22.62661,13.20174 L22.00923,13.43856" stroke="#092AB3" stroke-width="0.04" fill-opacity="0" />
  <path d="M23.24328,15.50382 L22.59032,15.60731" stroke="#092AB3" stroke-width="0.04" fill-opacity="0" />
  <path d="M11.98371,5.891571 L11.98371,7.214386" stroke="#092AB3" stroke-width="0.04" fill-opacity="0" />
  <path d="M13.96237,6.064784 L13.73273,7.367475" stroke="#092AB3" stroke-width="0.04" fill-opacity="0" />
  <path d="M11.38717,5.90271 L11.42167,6.562861" stroke="#092AB3" stroke-width="0.04" fill-opacity="0" />
  <path d="M15.88101,6.579032 L15.42893,7.82171" stroke="#092AB3" stroke-width="0.04" fill-opacity="0" />
  <path d="M17.68142,7.418505 L17.02019,8.563795" stroke="#092AB3" stroke-width="0.04" fill-opacity="0" />
  <path d="M11.5859,5.894086 L11.6089,6.554955" stroke="#092AB3" stroke-width="0.04" fill-opacity="0" />
  <path d="M20.18438,9.36805 L19.70858,9.827315" stroke="#092AB3" stroke-width="0.04" fill-opacity="0" />
  <path d="M19.30861,8.557686 L18.45836,9.57073" stroke="#092AB3" stroke-width="0.04" fill-opacity="0" />
  <path d="M20.713,9.962437 L19.69996,10.81233" stroke="#092AB3" stroke-width="0.04" fill-opacity="0" />
  <path d="M11.78463,5.888695 L11.79613,6.549924" stroke="#092AB3" stroke-width="0.04" fill-opacity="0" />
  <path d="M21.85219,11.58927 L20.7069,12.2505" stroke="#092AB3" stroke-width="0.04" fill-opacity="0" />
  <path d="M22.69166,13.38968 L21.44898,13.84212" stroke="#092AB3" stroke-width="0.04" fill-opacity="0" />
  <path d="M10.99043,5.935053 L11.07237,6.869038" stroke="#092AB3" stroke-width="0.04" fill-opacity="0" />
  <path d="M20.3213,9.512155 L19.83759,9.963155" stroke="#092AB3" stroke-width="0.04" fill-opacity="0" />
  <path d="M22.31145,12.47115 L21.46192,12.86717" stroke="#092AB3" stroke-width="0.04" fill-opacity="0" />
  <path d="M23.20591,15.30832 L21.90357,15.53796" stroke="#092AB3" stroke-width="0.04" fill-opacity="0" />
  <path d="M23.37912,17.28698 L22.05666,17.28698" stroke="#092AB3" stroke-width="0.04" fill-opacity="0" />
  <path d="M12.1828,5.888695 L12.1713,6.549924" stroke="#092AB3" stroke-width="0.04" fill-opacity="0" />
  <path d="M0.5884156,17.28698 L1.910764,17.28698" stroke="#092AB3" stroke-width="0.04" fill-opacity="0" />
  <path d="M0.5853965,17.08825 L1.246661,17.09975" stroke="#092AB3" stroke-width="0.04" fill-opacity="0" />
  <path d="M12.38153,5.894086 L12.35853,6.554955" stroke="#092AB3" stroke-width="0.04" fill-opacity="0" />
  <path d="M20.4557,9.658774 L19.96409,10.10151" stroke="#092AB3" stroke-width="0.04" fill-opacity="0" />
  <path d="M0.5906071,16.88916 L1.251332,16.91216" stroke="#092AB3" stroke-width="0.04" fill-opacity="0" />
  <path d="M0.5993039,16.69043 L1.259598,16.72493" stroke="#092AB3" stroke-width="0.04" fill-opacity="0" />
  <path d="M12.58026,5.90271 L12.54576,6.562861" stroke="#092AB3" stroke-width="0.04" fill-opacity="0" />
  <path d="M0.6114504,16.49171 L1.271098,16.53806" stroke="#092AB3" stroke-width="0.04" fill-opacity="0" />
  <path d="M0.6461288,16.09533 L1.303799,16.16469" stroke="#092AB3" stroke-width="0.04" fill-opacity="0" />
  <path d="M12.77898,5.914929 L12.73299,6.57436" stroke="#092AB3" stroke-width="0.04" fill-opacity="0" />
  <path d="M20.58759,9.80791 L20.08843,10.24166" stroke="#092AB3" stroke-width="0.04" fill-opacity="0" />
  <path d="M22.76281,13.57547 L22.13752,13.79073" stroke="#092AB3" stroke-width="0.04" fill-opacity="0" />
  <path d="M23.27275,15.70039 L22.61799,15.79239" stroke="#092AB3" stroke-width="0.04" fill-opacity="0" />
  <path d="M23.37696,16.88916 L22.71609,16.91216" stroke="#092AB3" stroke-width="0.04" fill-opacity="0" />
  <path d="M0.6686608,15.89768 L1.325002,15.97818" stroke="#092AB3" stroke-width="0.04" fill-opacity="0" />
  <path d="M0.6946074,15.70039 L1.349438,15.79239" stroke="#092AB3" stroke-width="0.04" fill-opacity="0" />
  <path d="M13.17536,5.949428 L13.10636,6.607063" stroke="#092AB3" stroke-width="0.04" fill-opacity="0" />
  <path d="M0.7240388,15.50382 L1.377109,15.60731" stroke="#092AB3" stroke-width="0.04" fill-opacity="0" />
  <path d="M0.6317908,16.29406 L1.565416,16.37563" stroke="#092AB3" stroke-width="0.04" fill-opacity="0" />
  <path d="M13.37301,5.972067 L13.29251,6.628265" stroke="#092AB3" stroke-width="0.04" fill-opacity="0" />
  <path d="M20.04136,9.229336 L19.37869,9.892001" stroke="#092AB3" stroke-width="0.04" fill-opacity="0" />
  <path d="M0.7931446,15.11175 L1.442154,15.23789" stroke="#092AB3" stroke-width="0.04" fill-opacity="0" />
  <path d="M0.832782,14.91698 L1.479528,15.05425" stroke="#092AB3" stroke-width="0.04" fill-opacity="0" />
  <path d="M13.5703,5.997942 L13.4783,6.652702" stroke="#092AB3" stroke-width="0.04" fill-opacity="0" />
  <path d="M0.8758697,14.72256 L1.520136,14.87134" stroke="#092AB3" stroke-width="0.04" fill-opacity="0" />
  <path d="M0.9222998,14.52922 L1.563979,14.68914" stroke="#092AB3" stroke-width="0.04" fill-opacity="0" />
  <path d="M13.76723,6.02741 L13.66374,6.680372" stroke="#092AB3" stroke-width="0.04" fill-opacity="0" />
  <path d="M20.84309,10.11265 L20.3292,10.52879" stroke="#092AB3" stroke-width="0.04" fill-opacity="0" />
  <path d="M22.8257,13.76414 L22.19682,13.96862" stroke="#092AB3" stroke-width="0.04" fill-opacity="0" />
  <path d="M1.025293,14.1447 L1.661007,14.3269" stroke="#092AB3" stroke-width="0.04" fill-opacity="0" />
  <path d="M1.081821,13.95388 L1.714192,14.14722" stroke="#092AB3" stroke-width="0.04" fill-opacity="0" />
  <path d="M12.97699,5.935053 L12.89506,6.869038" stroke="#092AB3" stroke-width="0.04" fill-opacity="0" />
  <path d="M1.141619,13.76414 L1.770612,13.96862" stroke="#092AB3" stroke-width="0.04" fill-opacity="0" />
  <path d="M1.204615,13.57547 L1.829907,13.79073" stroke="#092AB3" stroke-width="0.04" fill-opacity="0" />
  <path d="M14.15894,6.096407 L14.0328,6.745418" stroke="#092AB3" stroke-width="0.04" fill-opacity="0" />
  <path d="M20.96707,10.26861 L20.446,10.67577" stroke="#092AB3" stroke-width="0.04" fill-opacity="0" />
  <path d="M0.9767072,14.33768 L1.882015,14.58025" stroke="#092AB3" stroke-width="0.04" fill-opacity="0" />
  <path d="M1.340814,13.20174 L1.9582,13.43856" stroke="#092AB3" stroke-width="0.04" fill-opacity="0" />
  <path d="M14.35407,6.136297 L14.21644,6.782791" stroke="#092AB3" stroke-width="0.04" fill-opacity="0" />
  <path d="M1.413765,13.01666 L2.026839,13.26427" stroke="#092AB3" stroke-width="0.04" fill-opacity="0" />
  <path d="M1.48995,12.83267 L2.098711,13.09105" stroke="#092AB3" stroke-width="0.04" fill-opacity="0" />
  <path d="M14.54813,6.179061 L14.39935,6.823399" stroke="#092AB3" stroke-width="0.04" fill-opacity="0" />
  <path d="M21.08818,10.42637 L20.55992,10.82419" stroke="#092AB3" stroke-width="0.04" fill-opacity="0" />
  <path d="M22.88571,13.95388 L22.25323,14.14722" stroke="#092AB3" stroke-width="0.04" fill-opacity="0" />
  <path d="M23.29862,15.89768 L22.64243,15.97818" stroke="#092AB3" stroke-width="0.04" fill-opacity="0" />
  <path d="M1.569369,12.65011 L2.173459,12.91928" stroke="#092AB3" stroke-width="0.04" fill-opacity="0" />
  <path d="M1.737551,12.28967 L2.331937,12.57932" stroke="#092AB3" stroke-width="0.04" fill-opacity="0" />
  <path d="M14.74147,6.225778 L14.58155,6.867241" stroke="#092AB3" stroke-width="0.04" fill-opacity="0" />
  <path d="M9.225961,6.225778 L9.385877,6.867241" stroke="#092AB3" stroke-width="0.04" fill-opacity="0" />
  <path d="M22.99065,14.33768 L22.08541,14.58025" stroke="#092AB3" stroke-width="0.04" fill-opacity="0" />
  <path d="M1.826314,12.11143 L2.41531,12.41186" stroke="#092AB3" stroke-width="0.04" fill-opacity="0" />
  <path d="M1.917951,11.93498 L2.501916,12.24547" stroke="#092AB3" stroke-width="0.04" fill-opacity="0" />
  <path d="M15.12599,6.328556 L14.94379,6.96427" stroke="#092AB3" stroke-width="0.04" fill-opacity="0" />
  <path d="M21.20641,10.58629 L20.67168,10.97512" stroke="#092AB3" stroke-width="0.04" fill-opacity="0" />
  <path d="M2.013183,11.76033 L2.591398,12.08088" stroke="#092AB3" stroke-width="0.04" fill-opacity="0" />
  <path d="M1.655975,12.47115 L2.50551,12.86717" stroke="#092AB3" stroke-width="0.04" fill-opacity="0" />
  <path d="M15.31681,6.384976 L15.12347,7.017455" stroke="#092AB3" stroke-width="0.04" fill-opacity="0" />
  <path d="M2.21191,11.4157 L2.778626,11.75602" stroke="#092AB3" stroke-width="0.04" fill-opacity="0" />
  <path d="M2.315766,11.24608 L2.876732,11.59646" stroke="#092AB3" stroke-width="0.04" fill-opacity="0" />
  <path d="M15.50655,6.44499 L15.30207,7.073875" stroke="#092AB3" stroke-width="0.04" fill-opacity="0" />
  <path d="M21.4346,10.91223 L20.88658,11.28202" stroke="#092AB3" stroke-width="0.04" fill-opacity="0" />
  <path d="M18.19279,7.72612 L17.83235,8.280617" stroke="#092AB3" stroke-width="0.04" fill-opacity="0" />
  <path d="M2.422856,11.07826 L2.977354,11.43834" stroke="#092AB3" stroke-width="0.04" fill-opacity="0" />
  <path d="M15.69522,6.508237 L15.47996,7.13317" stroke="#092AB3" stroke-width="0.04" fill-opacity="0" />
  <path d="M2.761017,10.58629 L3.295749,10.97512" stroke="#092AB3" stroke-width="0.04" fill-opacity="0" />
  <path d="M2.879247,10.42637 L3.407512,10.82419" stroke="#092AB3" stroke-width="0.04" fill-opacity="0" />
  <path d="M21.54457,11.07826 L20.99007,11.43834" stroke="#092AB3" stroke-width="0.04" fill-opacity="0" />
  <path d="M3.000353,10.26861 L3.52143,10.67577" stroke="#092AB3" stroke-width="0.04" fill-opacity="0" />
  <path d="M3.124333,10.11265 L3.638222,10.52879" stroke="#092AB3" stroke-width="0.04" fill-opacity="0" />
  <path d="M16.06895,6.644077 L15.83213,7.261463" stroke="#092AB3" stroke-width="0.04" fill-opacity="0" />
  <path d="M2.649256,10.75088 L3.417214,11.28849" stroke="#092AB3" stroke-width="0.04" fill-opacity="0" />
  <path d="M3.379841,9.80791 L3.878996,10.24166" stroke="#092AB3" stroke-width="0.04" fill-opacity="0" />
  <path d="M16.25438,6.717028 L16.00643,7.330101" stroke="#092AB3" stroke-width="0.04" fill-opacity="0" />
  <path d="M21.65166,11.24608 L21.09069,11.59646" stroke="#092AB3" stroke-width="0.04" fill-opacity="0" />
  <path d="M23.04527,14.52922 L22.40345,14.68914" stroke="#092AB3" stroke-width="0.04" fill-opacity="0" />
  <path d="M23.32126,16.09533 L22.66363,16.16469" stroke="#092AB3" stroke-width="0.04" fill-opacity="0" />
  <path d="M23.38199,17.08825 L22.72077,17.09975" stroke="#092AB3" stroke-width="0.04" fill-opacity="0" />
</svg>